/* XPM */
static char *team_logo_xpm[] = {
/* columns rows colors chars-per-pixel */
"256 64 8 1 ",
"  c None",
". c #201B1F",
"X c #866A37",
"o c #FF5F00",
"O c #E2AB3B",
"+ c #A5A3A4",
"@ c #EBD8BC",
"# c white",
/* pixels */
"#############################@oo#############################################################################################################################################################################################################################   ",
"#############################oooo############################################################################################################################################################################################################################   ",
"############################@oooo############################################################################################################################@@O@###############################################################################################",
"#############################oooo##########################################################################################################################@@OOOOO@#############################################################################################",
"##############################oo#########################################################################################################################@OOOX.XOOOO@###########################################################################################",
"##############################Oo#######################################################################################################################@OOX.XXX..XXOOOO#########################################################################################",
"##############################oo#####################################################################################################################OOOOX....XOX..XXOOO@@######################################################################################",
"##########################@@@Ooo##################################################################################################################@OOO.XOOOX....XOXXOX.XXOO@####################################################################################",
"######################@@OoooooooooooO###########################################################################################################@OOOOO...XOOOXXXXXOOXX...XOOO@##################################################################################",
"####################@ooooooooooooooooooo@####################################################################################################@@OOX.XOOOOX...OOOOOOXXXOX.....XOOO@###############################################################################",
"##################@oooooooooooooooooooooooo################################################################################################@OOOOOX...XOXOXXXOOXXOOOOXXOOXX..XXXXOO@#############################################################################",
"################@oooooooooooooooooooooooooooo############################################################################################@OOOX..XOOX...XXXOXOX...XOOOOXXOOXXXOOXXOOO@@##########################################################################",
"###############OoooooooooooooooO@O##OoooooooooO#######################################################################################@@OOXXOOX...XXOX.XOOXXXOX....XXOOOXXXOOOXXOOXXOOO@########################################################################",
"#############@oooooooooooooooo#######ooooooooooo#####################################################################################@OOOOOXXXOO...XOOOOXXOOX.OOX....XXOOOOXXXOOXXOOXXOOO######++###################++##########################################",
"############@oooooooooooooooo@#ooo@@ooooooooooooo###################################################################################OOX..XOOOOXOXXXOOOOXOOXXOOXXXOX.XOOXOXOOOXXXOOXXOX.OO@#####..###############+@##.X#@+@##########+###########################",
"###########@ooooooooooooooooO#Oooooooooooooooooooo@#################################################################################@X......XXOXXXOXXOOX.XOOXXOOXXXOOXXOOXXXOOOXXXOOXO.XO######..###############.+#####+.+#########+.###########################",
"##########Oooooooooooooooooo#@ooooOOooooooooooooooo@################################################################################@..XX...XX.OOXXOXXXOO.XXOXXXOOXXOOXXOOOXXOOOOXXXOX.XO@#####X.#@.+..@#@+..X#X..X#X+#X..@@X@#@.@@...@#+..X####################",
"#########@ooooooooooooooOoo##ooOo@###ooooooooooooooo################################################################################@X.XOXX..OOX.XOXXXOXXOOXXXOOXXOX..OOXXXOOXXOOX..OO.XO######..#+.++X.#+.+@+#+.X@#..#X.X#+.+#+.@@..@#+.+@.+###################",
"########@ooooooooooO@################Oooooooooooooooo###############################################################################@..XOXOO..XX..OOOXXOXXXOOOXOOOX...XOOOXXXOXOX..XOX.OO@#####X.#+.##+.@+..@###.+##.X#+.+#+.@#@.+#+.##X.++.X###################",
"########oooooooooO###@OOOOOOoOOOO@###ooooooooooooooooo##############################################################################@X.XOXOO..X.....OOXXXXXXXOO..XOOX....OOOX..OO...OO.XO######..#+.##+.+#@X..##.+#@.+#+.+#+.+#@.+#X.##..X+++###################",
"#######@oooooooo##@oooooooooooooooO@Ooooooooooooooooooo#############################################################################@..XOXOX.XO.......XXOOXXOX.....XOOX...XOO..OO..XOX.XO@#####..#+.##X.@#+#+.+#.+@#.X#+.+#+.+@+.+#X.@#+.+@@@###################",
"#######oooooooO##oooooooooooooooooooooooooooooooooooooo#############################################################################@X.XOXOO..OX.OO..XOOXXOXXXOOO....XOOX..OO..OO...OO..O######X.#+.##+.@+.X..##X.X#.X#@..+#X..X.+#+..+#X.X.+###################",
"######oooooooO#@oooooooooooooooooooooooooooooooooooooooo############################################################################@..XOXOX.XO..O@X.X.OO..OOOXXOOOX..XOX.XOO..OO..XO...O######@@##@###@##+++####++##@##@+@##++@@###@+@##+++####################",
"#####@ooooooo#@ooooooooooooooooooooooooooooooooooooooooo############################################################################@X..OXOO..OX.XOX.OX.....XOOXXXOOX..OX..OO..@O...OXOXO@######################################################################",
"#####Ooooooo#@oooooooo################################@oo###########################################################################OXXXOXOX.XO..OOX.OO.......OOOXXOX..OX.X@O..OX..OOXOXO#######################################################################",
"#####oooooo##ooooooo@###################################o###########################################################################@XOOXXO...OX.XOX.OO..OO.....OO.OO..OX..OO..XOOXOOXOXX@######################################################################",
"####@oooooo##oooooo#############################################################@@oooooO################################@oooo@######OXOOOXOXXXO..OOX.OX..O@.XX..OOXOX..OX.XOO..XOOOOOXOXO#######++@###############@+++@###+############@++@#####################",
"####oooooo##Oooooo@#########################################ooooo######oooo@###oooooooooooo######oooo#######oooo######ooooooooo#####@XOOXXOXOOO...OX.OO..XO.OX..OOXOX..OX..XOOOXOOXOOX..O@#####+..+###############X.X..+#+.+##########@....X@#########@@########",
"####oooooo##oooooo###########################################ooooo#####oooo####ooooooooooooo#####oooo#######oooo#####oooooooooo#####OXXXOXXOOOOOXXO..OO..OO.XX..OOXOX..OX..OXOOXOOOOO...O######.X@@###############..@@X.@#+###########+.+@+.X#########XX########",
"###@oooooo##ooooo#############################################oooo####oooo#####ooooOOOOooooo#####oooo#######oooo####ooooo#####o#####@X..OOXXOOOOOXOX.XO..XOXXO..OO.OX..OXOOOXOXXOOXOOX..O@####@..+##+XX+##@+@X+###.X##..#@+@#@+X+++###+.+##X.@#+XX+@#+..+#@XXX@#",
"###Oooooo###ooooo#############################################ooooo###oooo#####oooo@###@oooo#####oooo#######oooo####oooo############@...OXOOOOOXOXOXXXX..OO.XX..OOXO..OOXOOXXOOXOOOOO...O@####@..+#+.XX.X#+...@###X.X..##+.+#..+..@###+.+##@.+#.X+.X#+..+#+X+..#",
"###Oooooo###ooooo#############ooo###########ooO################oooo##oooo######oooo@####Oooo@####oooo#######oooo####oooo############@X.XOXXXOOOOOXOXOXO..XO.OO..XOXOXOOOXXOXOXXXOOXOOX..O@#####.X##X.##X.#+.+#####X.X..+#+.+#.@#X.####+.+##@.+###+..#@.X###@#+.@",
"###oooooo###ooooO############ooooO#########oooo################oooo@#oooo######oooo@####Oooo@####oooo#######oooo####oooo############@..XOXOOXXXOOXOXOXOOXOX..X..XXXOXOOOXOOOX..XOOOOO...O######..@#.X##+.@+.@#####X.##+.@@.+#X.+.X####+.+##X.+#XX+XX##.X##+.+X.@",
"###oooooo##@oooo@############ooooo#########ooooo################oooooooo#######oooo@####Oooo@####oooo#######oooo####oooooO##########@X.XOXXOXXXOOXOXOXOOXOX..X..XXXXXOOOXXOOX..XOOXOO...O@#####.X##..##X.#+.+#####.X#@+.++.+#XXX+#####+.+@@.X#+.+#X.#@.X#@.+#+.@",
"###oooooo###@#@##############ooooo#########ooooo################oooooooo#######oooo#####oooo@####oooo#######oooo#####ooooooo@#######@..XOXXOX.OOOXOXOXOOXOXOO.XOXOXOXOOOXXOOX..XOOOOO...O@#####..##@.X..+#X.@#####..X..X#+.+#.X++@####+..X..@#+..+..+#X.X@..+..X",
"###oooooo####################ooooo#########ooooo#################oooooo########ooooO@@OOoooo#####oooo#######oooo#####Ooooooooo######@X..OOXOXXOOOXO..XOOXOXOX.OOXXXOXOXOXOOXO..XOOXOOX..O@#####++###@.X+##@+@#####@+X++##@+@#X.X..@####+XX+####+X+@X+#@X+##XX+++",
"###oooooo####################oooo##########oooo##################@ooooo########ooooooooooooo#####oooo#######oooo#######oooooooo#####OX..OOXOXXXOOXO..XOOXOXOO.OOXO.OXX.OXXOOX..XOOOOO.OXO@##################################+.+#@.+#############################",
"###oooooo##@oooo#############ooo###########ooo####################oooo#########oooooooooooo######oooo#######oooo##########oooooo####@XXXOXXOXXXOOXO..XOOXOXXO.OOXXXOXX.OXOOOX..XOOXOOXOXO@##################################@X.+XX@#############################",
"###oooooo###ooooO############oo@###########oo#####################oooo#########oooooooooooo######oooo#######oooo###########@oooO####OXOOXOXOX.OOOXO..XOOXOX.XXX..OXOXO.OXOXOX..XOOOOOXOXO@####################################+++###############################",
"###Oooooo###ooooO#############o############@o#####################oooo#########oooo####oooo######oooo#######oooo############oooO####@XOOXXOOXXOXOXO..XOOXOX..X..XO.OXX.OXOOOX..XOOXOOXOXX@######################################################################",
"###Oooooo###ooooo##############@##################################oooo#########oooo#####oooO#####oooo#######oooo############oooO####OXOOOXXXOXOOOXO..XOOXOX..X..XOXOXO.OXXOXOXOXOOXOOXOXO@######@X@#################+X############@X@###########################",
"###@oooooO##ooooo#################################################oooo#########oooo#####oooo#####ooooo#####ooooo###########@oooo####@XXXOXOOOXOXOXO..XOOXOX..X..XOXXXO.OXOOXXOOXOOXOOXOXO@######X.+#################X.#########+##+.+###########################",
"###@oooooo##ooooo@################################################oooo#########oooo#####oooo######ooooooooooooo#####ooooooooooo#####OX..OXXOOXOOOXO..XOOXOX..X..XOXOXX.OXXOOXOOXOOOOOXOXO@######...######@#####@@###+.########+.@#######@@####@@################",
"####oooooo##oooooo################################################oooo#########oooo######oooo######ooooooooooo@#####Ooooooooooo#####@X..OXOXOOXOOXOXX.OOXOX..X..XOXOXO.OXOOXOOXXOOXOOXOXX@#####+.@.+##X.X..@#@...X##X.#+.@#XX+...+#.@#@X..X#@...+###############",
"####OoooooO##oooooo###############################################oooo#########oooo######oooo#######@oooooooo########oooooooo#######@..XOXoX.XOOOXOXOXOOXOX..X..XOXXXOXOXXOOXOOXOOOOOXOXO@#####.+#.X##X.+@.X#@+#+.+#+.#+.+#..@X.+#+.+#X.@++#..@++###############",
"####@oooooo##ooooooo#####################################o##########################################################################@X.XOXOX.XOXOXOXOXOOXOX..X...OXOXOXXXOOXXOXXOOXOOXOXO@####@.....##X.##X.##@XX.X#X.##XX@.+#X.##+.+@.+####+..@################",
"#####ooooooo#@ooooooo##################################@o###########################################################################@..XOXOX..OX.XOXOXOOXOX..X..XXXXXOXOXXXOXOOXOOXOOXOXO@####+.++X.@#X.##+.#+.+@.+#+.##+.X.@#+.##+.@+.+#####@..X###############",
"#####@ooooooO#OooooooooO#############################oooO###########################################################################@X.XOXOO..O...OXOXOOXOXXX..OXXXOXOXOX..OOOXXOOXOOXOXX@####.X###..#X.##X.#..@@.X#X.###X.+##X.@#+.+#..#++@+@#+.###############",
"######ooooooo@#Ooooooooooooooooooooooooooooooooooooooooo############################################################################O..XOXOX.XO..XOXOXOOXOXOO.OOXXXOXOXOX..OXOOXOOOOOXOOO@###+.@###X.#+.##XX#+..X..@@..@#+.+##+..+@.+#@....#X...X###############",
"######@oooooooO#@ooooooooooooooooooooooooooooooooooooooO############################################################################@O..OXOO..OX.OOXOXOOXOXXO.XOXOXO...OX..OOOXXOOXOOXOO@@###@@#####@##@##@@##@+@#+##+@##X.####@+##@####++###+++################",
"#######ooooooooO##OoooooooooooooooOOooooooooooooooooooo#############################################################################@OOOOXOX.XO..XOXOXOOXOXOX.OOXXXO...OX.XOXOOXOOOOOO@################################+..+#####################################",
"########ooooooooo@##@OoooooooooooO##@ooooooooooooooooo###############################################################################@OOOOOX..OX.XOXOXOOXOXXO.XOXXXOX..OX..OOOXXOOOO@@#################################X.+######################################",
"########Ooooooooooo@#################OoooooooooooooooO#################################################################################@@OOO.XO..OOXOXOOXOXOXX..XOXOO..OX.XOXXOOOO@#############################################################################",
"#########OooooooooooooOOOOO##OOOO@###oooooooooooooooo####################################################################################@@OOOO..XOXOXOOXOXXOX..XOXOO..OX..OOOOO@###############################################################################",
"##########oooooooooooooooooo#OooooO@Oooooooooooooooo#######################################################################################@@OOXXOOXOXOOXOXOX...XOXOX..OX.XOO@@#################################################################################",
"###########ooooooooooooooooo@#ooooooooooooooooooooo###########################################################################################@OOOoXOXOOXOXXOX..XOXOO..OOOO@@###################################################################################",
"############ooooooooooooooooo##oooO@oooooooooooooo###############################################################################################OOOOXOXXOXOX...XOXOX.XOO@@#####################################################################################",
"#############Ooooooooooooooooo######@oooooooooooo##################################################################################################@OOOOXOXXOX..XO.OOOO@@#######################################################################################",
"##############OoooooooooooooooO@@@##@oooooooooo#####################################################################################################@@OOOOXOX...XOOOO@##########################################################################################",
"###############@OoooooooooooooooooOOoooooooooo########################################################################################################@@OOOOXX.XoOO@############################################################################################",
"#################@oooooooooooooooooooooooooo#############################################################################################################@OOOOOOO###############################################################################################",
"###################@oooooooooooooooooooooo#################################################################################################################@OOO#################################################################################################",
"#####################@Ooooooooooooooooo######################################################################################################################################################################################################################   ",
"########################@@OOooooooOOO########################################################################################################################################################################################################################   "
};
